/* XPM */
static char *tree[]={
"32 32 3 1",
". c None",
"a c #008000",
"# c #303030",
"................................",
".###.....aaaaa..................",
".#.######aaaaa..................",
".###.....aaaaa..................",
"...........#....................",
"..........###....aaaaa..........",
"..........#.#####aaaaa..........",
"..........###....aaaaa..........",
"...........#.......#............",
"...........#.......#....aaaaa...",
"...........#.......#####aaaaa...",
"...........#.......#....aaaaa...",
"...........#.......#............",
"...........#.......#....aaaaa...",
"...........#.......#####aaaaa...",
"...........#............aaaaa...",
"...........#.....aaaaa..........",
"...........######aaaaa..........",
"...........#.....aaaaa..........",
"...........#....................",
"..........###....aaaaa..........",
"..........#.#####aaaaa..........",
"..........###....aaaaa..........",
"...................#............",
"...................#....aaaaa...",
"...................#####aaaaa...",
"........................aaaaa...",
"................................",
"................................",
"................................",
"................................",
"................................"};
